<?xml version="1.0" standalone="no"?>
<!DOCTYPE svg PUBLIC "-//W3C//DTD SVG 20010904//EN"
 "http://www.w3.org/TR/2001/REC-SVG-20010904/DTD/svg10.dtd">
<svg version="1.0" xmlns="http://www.w3.org/2000/svg"
 width="24.000000pt" height="24.000000pt" viewBox="0 0 24.000000 24.000000"
 preserveAspectRatio="xMidYMid meet">

<g transform="translate(0.000000,24.000000) scale(0.100000,-0.100000)"
fill="#000000" stroke="none">
<path d="M52 194 c-18 -13 -22 -25 -22 -73 0 -75 16 -91 92 -91 72 0 88 17 88
92 0 40 -5 59 -18 71 -24 22 -110 23 -140 1z m133 -74 l0 -65 -59 -3 c-32 -2
-64 2 -69 7 -12 12 -13 103 -2 121 4 7 30 10 68 8 l62 -3 0 -65z"/>
<path d="M160 170 c0 -5 5 -10 10 -10 6 0 10 5 10 10 0 6 -4 10 -10 10 -5 0
-10 -4 -10 -10z"/>
<path d="M110 162 c-24 -7 -38 -31 -33 -53 7 -26 33 -39 61 -28 45 17 19 96
-28 81z m35 -42 c0 -18 -6 -26 -23 -28 -24 -4 -38 18 -28 44 3 9 15 14 28 12
17 -2 23 -10 23 -28z"/>
</g>
</svg>
