<?xml version="1.0" standalone="no"?>
<!DOCTYPE svg PUBLIC "-//W3C//DTD SVG 20010904//EN"
 "http://www.w3.org/TR/2001/REC-SVG-20010904/DTD/svg10.dtd">
<svg version="1.0" xmlns="http://www.w3.org/2000/svg"
 width="24.000000pt" height="24.000000pt" viewBox="0 0 24.000000 24.000000"
 preserveAspectRatio="xMidYMid meet">

<g transform="translate(0.000000,24.000000) scale(0.100000,-0.100000)"
fill="#000000" stroke="none">
<path d="M120 140 c0 -79 0 -80 -25 -80 -18 0 -25 5 -25 20 0 11 7 23 15 26 8
4 15 14 15 24 0 25 -37 14 -57 -17 -20 -30 -6 -68 32 -85 22 -10 30 -8 53 9
21 16 28 29 30 67 3 43 5 46 28 40 30 -8 35 21 5 31 -11 3 -23 15 -26 26 -4
10 -15 19 -26 19 -17 0 -19 -8 -19 -80z"/>
</g>
</svg>
