<?xml version="1.0" standalone="no"?>
<!DOCTYPE svg PUBLIC "-//W3C//DTD SVG 20010904//EN"
 "http://www.w3.org/TR/2001/REC-SVG-20010904/DTD/svg10.dtd">
<svg version="1.0" xmlns="http://www.w3.org/2000/svg"
 width="24.000000pt" height="24.000000pt" viewBox="0 0 24.000000 24.000000"
 preserveAspectRatio="xMidYMid meet">

<g transform="translate(0.000000,24.000000) scale(0.100000,-0.100000)"
fill="#000000" stroke="none">
<path d="M132 188 c-7 -7 -12 -18 -12 -26 0 -18 -47 -8 -72 15 -16 15 -17 13
-16 -21 1 -23 10 -46 24 -61 l22 -24 -26 -9 -27 -9 23 -7 c35 -11 86 1 110 27
12 12 28 42 36 65 15 42 15 43 -10 52 -32 13 -37 13 -52 -2z"/>
</g>
</svg>
