<?xml version="1.0" standalone="no"?>
<!DOCTYPE svg PUBLIC "-//W3C//DTD SVG 20010904//EN"
 "http://www.w3.org/TR/2001/REC-SVG-20010904/DTD/svg10.dtd">
<svg version="1.0" xmlns="http://www.w3.org/2000/svg"
 width="24.000000pt" height="24.000000pt" viewBox="0 0 24.000000 24.000000"
 preserveAspectRatio="xMidYMid meet">

<g transform="translate(0.000000,24.000000) scale(0.100000,-0.100000)"
fill="#000000" stroke="none">
<path d="M85 211 c-61 -26 -80 -108 -36 -155 33 -35 51 -33 51 4 0 17 -4 30
-10 30 -5 0 -10 7 -10 15 0 8 4 15 8 15 4 0 13 14 19 30 9 23 18 30 37 30 28
0 35 -17 11 -26 -17 -7 -21 -34 -5 -34 6 0 10 -7 10 -15 0 -8 -4 -15 -10 -15
-5 0 -10 -13 -10 -30 0 -40 21 -39 55 2 22 26 26 39 21 67 -10 62 -78 105
-131 82z"/>
</g>
</svg>
