<?xml version="1.0" standalone="no"?>
<!DOCTYPE svg PUBLIC "-//W3C//DTD SVG 20010904//EN"
 "http://www.w3.org/TR/2001/REC-SVG-20010904/DTD/svg10.dtd">
<svg version="1.0" xmlns="http://www.w3.org/2000/svg"
 width="24.000000pt" height="24.000000pt" viewBox="0 0 24.000000 24.000000"
 preserveAspectRatio="xMidYMid meet">

<g transform="translate(0.000000,24.000000) scale(0.100000,-0.100000)"
fill="#000000" stroke="none">
<path d="M37 203 c-4 -3 -7 -39 -7 -79 0 -81 3 -84 76 -84 27 0 44 5 44 12 0
6 7 4 18 -5 10 -10 22 -17 25 -17 9 0 9 143 1 164 -5 13 -22 16 -78 16 -40 0
-76 -3 -79 -7z m127 -68 c10 -38 1 -44 -54 -43 -41 1 -50 5 -50 19 0 39 11 49
55 49 38 0 44 -3 49 -25z"/>
<path d="M120 120 c0 -5 5 -10 10 -10 6 0 10 5 10 10 0 6 -4 10 -10 10 -5 0
-10 -4 -10 -10z"/>
</g>
</svg>
