<?xml version="1.0" encoding="UTF-8"?>
<!DOCTYPE svg PUBLIC "-//W3C//DTD SVG 1.1//EN" "http://www.w3.org/Graphics/SVG/1.1/DTD/svg11.dtd">
<svg xmlns="http://www.w3.org/2000/svg" version="1.1" width="512px" height="512px" style="shape-rendering:geometricPrecision; text-rendering:geometricPrecision; image-rendering:optimizeQuality; fill-rule:evenodd; clip-rule:evenodd" xmlns:xlink="http://www.w3.org/1999/xlink">
<g><path style="opacity:0.996" fill="#000000" d="M 119.5,47.5 C 146.169,47.3334 172.835,47.5 199.5,48C 212,51.1667 219.833,59 223,71.5C 223.667,194.167 223.667,316.833 223,439.5C 219.833,452 212,459.833 199.5,463C 172.833,463.667 146.167,463.667 119.5,463C 107,459.833 99.1667,452 96,439.5C 95.3333,316.833 95.3333,194.167 96,71.5C 99.349,58.9853 107.182,50.9853 119.5,47.5 Z M 127.5,79.5 C 148.833,79.5 170.167,79.5 191.5,79.5C 191.5,196.833 191.5,314.167 191.5,431.5C 170.167,431.5 148.833,431.5 127.5,431.5C 127.5,314.167 127.5,196.833 127.5,79.5 Z"/></g>
<g><path style="opacity:0.996" fill="#000000" d="M 311.5,47.5 C 338.169,47.3334 364.835,47.5 391.5,48C 404,51.1667 411.833,59 415,71.5C 415.667,194.167 415.667,316.833 415,439.5C 411.833,452 404,459.833 391.5,463C 364.833,463.667 338.167,463.667 311.5,463C 299,459.833 291.167,452 288,439.5C 287.333,316.833 287.333,194.167 288,71.5C 291.349,58.9853 299.182,50.9853 311.5,47.5 Z M 319.5,79.5 C 340.833,79.5 362.167,79.5 383.5,79.5C 383.5,196.833 383.5,314.167 383.5,431.5C 362.167,431.5 340.833,431.5 319.5,431.5C 319.5,314.167 319.5,196.833 319.5,79.5 Z"/></g>
</svg>
