<?xml version="1.0" standalone="no"?>
<!DOCTYPE svg PUBLIC "-//W3C//DTD SVG 20010904//EN"
 "http://www.w3.org/TR/2001/REC-SVG-20010904/DTD/svg10.dtd">
<svg version="1.0" xmlns="http://www.w3.org/2000/svg"
 width="512.000000pt" height="512.000000pt" viewBox="0 0 512.000000 512.000000"
 preserveAspectRatio="xMidYMid meet">
<metadata>
Created by potrace 1.16, written by Peter Selinger 2001-2019
</metadata>
<g transform="translate(0.000000,512.000000) scale(0.100000,-0.100000)"
fill="#000000" stroke="none">
<path d="M4111 4839 c-166 -32 -323 -121 -447 -252 -169 -178 -254 -424 -228
-661 5 -48 7 -89 4 -91 -3 -1 -430 -181 -949 -400 l-944 -397 -40 48 c-130
155 -280 250 -466 296 -118 29 -293 29 -406 -1 -294 -78 -515 -290 -607 -581
-20 -66 -23 -95 -23 -240 0 -145 3 -174 23 -240 92 -291 313 -503 607 -581
112 -29 288 -30 405 -1 187 46 337 141 467 296 l40 48 944 -397 c519 -219 946
-399 949 -400 3 -2 1 -43 -4 -91 -38 -343 151 -681 469 -841 114 -58 187 -75
340 -80 119 -4 153 -2 230 16 307 73 553 319 626 626 28 121 23 332 -11 440
-119 378 -475 626 -861 601 -235 -15 -469 -133 -605 -306 -33 -42 -52 -59 -63
-55 -8 3 -427 180 -931 392 -503 212 -925 389 -937 394 -19 7 -21 13 -15 46 8
44 9 199 2 261 l-5 43 215 90 c118 50 545 230 948 400 404 170 735 309 736
309 2 0 24 -27 50 -60 136 -173 370 -291 605 -306 386 -25 742 223 861 601 34
108 39 319 11 440 -72 305 -319 553 -621 625 -91 21 -282 26 -369 9z m329
-342 c158 -56 271 -169 326 -326 31 -87 33 -220 4 -313 -69 -223 -299 -383
-525 -364 -212 17 -387 153 -456 354 -90 262 60 557 331 649 92 32 230 31 320
0z m-3520 -1427 c135 -21 276 -114 356 -235 106 -161 106 -389 0 -550 -84
-126 -222 -215 -368 -236 -238 -35 -486 125 -558 359 -27 87 -27 217 0 304 54
174 207 313 390 352 81 18 99 18 180 6z m3468 -1455 c353 -83 517 -488 318
-788 -96 -145 -248 -226 -422 -227 -157 0 -285 56 -387 170 -186 207 -178 509
19 705 126 127 304 179 472 140z"/>
</g>
</svg>
