<?xml version="1.0" standalone="no"?>
<!DOCTYPE svg PUBLIC "-//W3C//DTD SVG 20010904//EN"
 "http://www.w3.org/TR/2001/REC-SVG-20010904/DTD/svg10.dtd">
<svg version="1.0" xmlns="http://www.w3.org/2000/svg"
 width="512.000000pt" height="512.000000pt" viewBox="0 0 512.000000 512.000000"
 preserveAspectRatio="xMidYMid meet">
<metadata>
Created by potrace 1.16, written by Peter Selinger 2001-2019
</metadata>
<g transform="translate(0.000000,512.000000) scale(0.100000,-0.100000)"
fill="#000000" stroke="none">
<path d="M2632 3981 c-18 -12 -41 -35 -52 -53 -20 -32 -20 -53 -20 -1368 0
-1315 0 -1336 20 -1368 11 -18 34 -41 52 -52 32 -20 47 -20 943 -18 l910 3 80
27 c132 46 220 101 321 202 102 102 157 190 201 321 25 74 27 92 27 245 0 153
-2 171 -27 245 -44 131 -99 219 -201 321 -102 102 -190 157 -321 201 -73 25
-93 27 -243 27 -155 1 -163 2 -167 21 -2 11 -12 61 -21 110 -51 271 -190 530
-394 735 -259 259 -584 403 -940 416 -124 5 -138 4 -168 -15z"/>
<path d="M1992 3660 c-18 -11 -41 -34 -52 -52 -20 -32 -20 -53 -20 -1208 0
-1155 0 -1176 20 -1208 30 -48 75 -72 140 -72 65 0 110 24 140 72 20 32 20 53
20 1208 0 1155 0 1176 -20 1208 -30 48 -75 72 -140 72 -37 0 -66 -6 -88 -20z"/>
<path d="M712 3020 c-18 -11 -41 -34 -52 -52 -19 -32 -20 -52 -20 -888 0 -836
1 -856 20 -888 30 -48 75 -72 140 -72 65 0 110 24 140 72 19 32 20 52 20 888
0 836 -1 856 -20 888 -30 48 -75 72 -140 72 -37 0 -66 -6 -88 -20z"/>
<path d="M1352 3020 c-18 -11 -41 -34 -52 -52 -19 -32 -20 -52 -20 -888 0
-836 1 -856 20 -888 30 -48 75 -72 140 -72 65 0 110 24 140 72 19 32 20 52 20
888 0 836 -1 856 -20 888 -30 48 -75 72 -140 72 -37 0 -66 -6 -88 -20z"/>
<path d="M72 2540 c-18 -11 -41 -34 -52 -52 -19 -32 -20 -52 -20 -568 0 -516
1 -536 20 -568 30 -48 75 -72 140 -72 65 0 110 24 140 72 19 32 20 52 20 568
0 516 -1 536 -20 568 -11 18 -34 41 -52 52 -45 27 -131 27 -176 0z"/>
</g>
</svg>
