<?xml version="1.0" standalone="no"?>
<!DOCTYPE svg PUBLIC "-//W3C//DTD SVG 20010904//EN"
 "http://www.w3.org/TR/2001/REC-SVG-20010904/DTD/svg10.dtd">
<svg version="1.0" xmlns="http://www.w3.org/2000/svg"
 width="512.000000pt" height="512.000000pt" viewBox="0 0 512.000000 512.000000"
 preserveAspectRatio="xMidYMid meet">
<metadata>
Created by potrace 1.16, written by Peter Selinger 2001-2019
</metadata>
<g transform="translate(0.000000,512.000000) scale(0.100000,-0.100000)"
fill="#000000" stroke="none">
<path d="M3370 5095 c-227 -62 -417 -162 -567 -299 -156 -143 -265 -356 -307
-606 -19 -115 -23 -258 -8 -287 38 -70 290 -44 487 52 360 174 635 623 635
1035 0 63 -4 82 -21 104 -18 23 -27 26 -77 25 -31 0 -95 -11 -142 -24z m64
-207 c-51 -333 -266 -645 -536 -777 -82 -41 -180 -71 -226 -71 -24 0 -24 1
-18 61 17 151 83 338 156 445 98 142 280 268 505 350 122 45 127 44 119 -8z"/>
<path d="M3355 3789 c-104 -10 -213 -41 -474 -136 -130 -47 -252 -85 -271 -85
-19 0 -129 31 -245 70 -276 92 -413 123 -582 130 -152 6 -245 -6 -366 -47
-373 -127 -646 -384 -803 -756 -112 -265 -170 -598 -145 -841 36 -354 196
-844 426 -1305 150 -300 353 -573 510 -684 139 -99 255 -135 431 -135 138 0
217 16 404 81 304 107 384 122 520 99 41 -7 167 -43 280 -81 251 -83 349 -103
485 -97 168 8 281 66 445 228 110 109 290 321 372 438 91 131 296 577 306 664
6 59 0 66 -93 117 -232 128 -431 344 -514 561 -112 288 -66 619 120 871 61 82
189 205 266 256 72 47 82 60 83 101 0 38 -28 83 -119 187 -124 143 -249 225
-430 285 -182 59 -445 93 -606 79z m322 -184 c128 -21 256 -59 353 -107 69
-33 103 -59 180 -135 l95 -94 -55 -46 c-307 -258 -457 -584 -436 -949 12 -212
87 -419 214 -590 78 -105 239 -256 345 -324 48 -30 86 -58 87 -62 1 -31 -190
-433 -248 -520 -53 -81 -318 -394 -383 -453 -124 -112 -214 -154 -329 -155
-101 0 -176 18 -408 94 -377 124 -482 125 -824 6 -232 -81 -312 -100 -428
-100 -114 1 -162 11 -243 51 -131 65 -230 168 -388 403 -259 384 -523 1084
-570 1509 -9 83 -9 135 0 222 62 619 358 1042 841 1206 79 27 114 33 210 37
177 7 327 -23 625 -123 201 -68 238 -77 296 -77 63 1 101 12 322 93 197 73
328 114 412 129 61 11 214 4 332 -15z"/>
</g>
</svg>
