<?xml version="1.0" standalone="no"?>
<!DOCTYPE svg PUBLIC "-//W3C//DTD SVG 20010904//EN"
 "http://www.w3.org/TR/2001/REC-SVG-20010904/DTD/svg10.dtd">
<svg version="1.0" xmlns="http://www.w3.org/2000/svg"
 width="512.000000pt" height="512.000000pt" viewBox="0 0 512.000000 512.000000"
 preserveAspectRatio="xMidYMid meet">
<metadata>
Created by potrace 1.16, written by Peter Selinger 2001-2019
</metadata>
<g transform="translate(0.000000,512.000000) scale(0.100000,-0.100000)"
fill="#000000" stroke="none">
<path d="M2235 5105 c-557 -73 -1052 -311 -1454 -700 -339 -328 -573 -720
-696 -1170 -59 -217 -77 -344 -82 -603 -6 -255 3 -381 43 -578 95 -483 323
-915 669 -1273 364 -376 822 -630 1317 -732 334 -68 733 -67 1063 2 979 205
1761 985 1974 1970 69 322 69 756 0 1078 -230 1065 -1112 1872 -2189 2006
-152 18 -501 18 -645 0z m260 -1335 c660 -43 1228 -185 1689 -423 192 -99 246
-162 246 -283 0 -139 -132 -261 -260 -240 -21 3 -108 42 -193 86 -364 189
-796 306 -1337 362 -166 17 -767 17 -915 0 -195 -23 -356 -51 -524 -93 -153
-39 -167 -41 -217 -30 -156 35 -232 207 -156 352 44 85 90 110 289 157 431
104 907 142 1378 112z m-85 -880 c494 -35 929 -150 1345 -355 211 -104 274
-149 301 -220 50 -132 -38 -275 -171 -275 -45 0 -73 11 -226 89 -253 130 -435
199 -694 262 -252 61 -454 88 -735 96 -327 9 -635 -23 -895 -93 -173 -46 -231
-45 -292 9 -111 97 -92 272 37 337 48 24 264 76 434 105 120 20 226 32 431 48
95 8 331 6 465 -3z m40 -841 c392 -35 702 -119 1018 -275 179 -88 245 -135
269 -191 42 -102 -30 -223 -133 -223 -20 0 -98 33 -206 86 -375 187 -633 258
-1030 286 -288 20 -703 -15 -1023 -87 -99 -23 -125 -25 -156 -16 -78 24 -130
116 -108 194 11 39 49 91 80 108 52 27 488 100 709 118 154 12 448 12 580 0z"/>
</g>
</svg>
