<?xml version="1.0" standalone="no"?>
<!DOCTYPE svg PUBLIC "-//W3C//DTD SVG 20010904//EN"
 "http://www.w3.org/TR/2001/REC-SVG-20010904/DTD/svg10.dtd">
<svg version="1.0" xmlns="http://www.w3.org/2000/svg"
 width="825.000000pt" height="200.000000pt" viewBox="0 0 825.000000 200.000000"
 preserveAspectRatio="xMidYMid meet">
<metadata>
Created by potrace 1.16, written by Peter Selinger 2001-2019
</metadata>
<g transform="translate(0.000000,200.000000) scale(0.100000,-0.100000)"
fill="#000000" stroke="none">
<path d="M826 1978 c-8 -13 -25 -44 -37 -71 -18 -36 -27 -46 -41 -41 -26 8
-175 -15 -241 -37 l-59 -20 -44 41 c-79 72 -109 50 -121 -88 -4 -53 -11 -83
-23 -97 -27 -30 -58 -95 -69 -145 -52 -227 -52 -248 -12 -311 34 -55 87 -83
141 -76 34 4 40 1 69 -37 18 -22 49 -54 70 -71 l38 -30 -166 3 c-121 2 -173
-1 -190 -10 -73 -38 -86 -179 -23 -250 20 -24 100 -23 222 2 52 10 96 18 98
16 2 -2 -7 -25 -20 -51 l-24 -47 -155 -1 c-132 -2 -160 -5 -194 -22 -32 -16
-41 -26 -43 -52 -3 -25 2 -35 23 -49 25 -16 29 -16 73 -1 47 17 179 23 240 11
27 -6 30 -10 36 -56 9 -65 38 -140 70 -183 14 -18 26 -36 26 -38 0 -3 -21 1
-47 9 -76 23 -146 19 -182 -12 -41 -34 -48 -79 -26 -160 13 -50 22 -65 39 -68
132 -27 217 -31 656 -30 491 1 581 8 588 46 2 13 -9 19 -50 27 -81 16 -323 31
-518 31 l-176 0 -18 68 c-41 149 -64 239 -70 278 -7 41 -7 41 23 36 38 -5 99
14 129 42 41 36 54 75 54 148 l-1 69 38 -22 c22 -12 49 -40 62 -63 21 -36 24
-56 27 -174 l4 -133 26 -11 c72 -27 377 15 408 57 17 23 26 115 14 154 -25 88
-102 106 -218 51 -62 -29 -63 -29 -56 -7 38 117 29 232 -22 288 -13 14 -6 18
73 39 49 12 100 29 115 36 63 32 59 160 -8 230 -31 33 -38 36 -74 31 -23 -3
-75 -21 -117 -41 -41 -20 -76 -36 -78 -36 -1 0 7 26 19 59 14 42 29 65 53 81
39 26 73 93 73 141 0 44 -43 132 -74 153 -13 8 -38 40 -55 71 -17 30 -48 72
-69 93 -28 28 -42 54 -55 102 -10 36 -27 84 -38 108 -17 35 -26 42 -50 42 -19
0 -33 -8 -43 -22z m173 -660 c0 -35 -6 -88 -12 -118 -11 -49 -15 -55 -37 -55
-20 0 -28 9 -45 53 -11 28 -23 52 -27 52 -3 0 -12 -25 -18 -55 -11 -53 -13
-55 -44 -55 -18 0 -57 -7 -86 -16 l-55 -16 -27 33 c-16 18 -28 37 -28 41 0 4
-5 8 -10 8 -7 0 -9 -20 -5 -57 6 -53 5 -59 -16 -72 -21 -12 -25 -11 -46 15
-13 16 -39 59 -58 96 l-35 66 36 23 37 22 39 -44 38 -44 -2 60 -3 60 78 22
c42 12 94 23 114 25 35 3 39 0 62 -42 14 -25 26 -38 28 -30 1 8 4 32 8 53 l6
37 54 0 55 0 -1 -62z"/>
<path d="M4849 1471 l-29 -29 0 -284 c0 -229 3 -293 15 -329 36 -106 129 -169
250 -169 64 0 74 3 95 25 33 35 32 87 -2 122 -20 19 -39 27 -80 31 -34 3 -61
12 -75 25 -22 19 -23 28 -23 156 l0 136 75 0 c68 0 77 2 102 27 35 36 37 87 3
123 -21 23 -31 25 -102 25 l-78 0 0 56 c0 48 -4 59 -29 85 -20 20 -39 29 -61
29 -22 0 -41 -9 -61 -29z"/>
<path d="M7675 1476 c-13 -13 -27 -39 -30 -58 -4 -19 -5 -153 -3 -299 4 -295
7 -310 76 -383 54 -56 103 -76 190 -76 64 0 76 3 97 25 27 26 33 72 14 107
-14 26 -68 48 -117 48 -68 0 -76 20 -80 179 l-3 136 46 -3 c104 -9 165 26 165
93 0 25 -8 44 -25 60 -22 22 -32 25 -105 25 l-80 0 0 58 c-1 60 -10 81 -47
100 -34 19 -72 14 -98 -12z"/>
<path d="M1892 1313 c-51 -18 -130 -92 -157 -148 -18 -35 -20 -65 -23 -247
l-3 -208 25 -25 c33 -33 85 -34 123 -1 l28 24 5 189 c3 103 9 196 14 206 12
26 59 47 107 47 33 0 47 -6 75 -34 l34 -34 0 -180 c0 -180 0 -181 26 -211 20
-24 34 -31 62 -31 81 1 92 30 92 235 0 177 7 207 52 239 30 21 102 20 135 -1
45 -30 53 -67 53 -253 0 -168 0 -171 25 -195 32 -33 84 -33 122 -1 l28 24 0
199 c0 197 0 198 -28 255 -34 69 -101 131 -164 152 -98 34 -228 13 -290 -46
l-23 -21 -22 21 c-63 59 -199 80 -296 45z"/>
<path d="M2991 1319 c-83 -25 -160 -96 -203 -187 -59 -123 -33 -269 65 -370
64 -67 127 -95 222 -100 65 -3 91 0 137 18 75 28 150 96 185 168 24 50 28 69
28 147 0 78 -4 97 -28 146 -31 63 -93 126 -159 160 -49 26 -188 36 -247 18z
m187 -189 c47 -29 72 -76 72 -135 0 -93 -62 -155 -156 -155 -157 0 -216 199
-84 287 43 30 121 31 168 3z"/>
<path d="M3683 1309 c-70 -27 -145 -100 -180 -174 -27 -57 -28 -67 -31 -236
l-4 -176 27 -31 c21 -25 34 -32 63 -32 79 1 92 32 92 217 0 135 2 153 23 193
27 53 74 80 137 80 63 0 110 -27 138 -80 20 -40 22 -58 22 -201 0 -152 1 -157
25 -183 36 -39 94 -37 130 6 l27 31 -4 176 c-3 169 -4 179 -31 236 -36 76
-110 147 -183 175 -72 27 -180 26 -251 -1z"/>
<path d="M4325 1316 c-72 -32 -125 -116 -125 -199 0 -72 47 -151 109 -184 38
-20 58 -23 156 -23 119 0 150 -10 143 -46 -3 -18 -15 -19 -173 -24 -111 -3
-178 -9 -192 -18 -49 -28 -58 -98 -18 -137 24 -25 26 -25 214 -25 104 0 201 4
215 10 43 16 104 79 122 126 35 91 0 198 -83 254 -33 23 -49 25 -164 30 -131
5 -154 12 -147 46 3 17 17 19 153 24 94 3 158 10 172 18 49 27 58 93 18 136
l-24 26 -173 0 c-121 -1 -182 -5 -203 -14z"/>
<path d="M5407 1315 c-87 -32 -174 -122 -204 -210 -36 -104 -15 -230 52 -314
72 -90 158 -131 276 -131 61 0 73 3 94 25 33 32 33 84 2 121 -20 22 -34 28
-93 33 -74 7 -98 17 -128 50 l-19 21 212 0 212 0 26 26 c24 24 25 31 20 90
-10 125 -96 240 -213 283 -65 25 -178 27 -237 6z"/>
<path d="M6114 1309 c-75 -28 -137 -88 -176 -167 -33 -66 -33 -68 -36 -230 -2
-90 -1 -174 2 -188 17 -68 105 -87 150 -33 26 30 26 33 26 185 0 136 2 160 20
195 23 44 71 79 111 79 46 0 89 21 104 51 21 40 19 63 -11 98 -23 28 -31 31
-82 30 -32 0 -80 -9 -108 -20z"/>
<path d="M6541 1319 c-82 -25 -166 -103 -207 -192 -54 -120 -27 -266 69 -365
23 -24 65 -56 92 -70 45 -24 61 -27 150 -27 92 0 104 2 153 29 102 57 136 123
92 179 -37 47 -86 45 -159 -8 -26 -19 -46 -25 -86 -25 -158 0 -217 199 -85
287 47 33 125 32 171 -2 73 -53 122 -55 159 -8 44 56 10 123 -92 178 -45 25
-66 29 -138 32 -47 1 -100 -2 -119 -8z"/>
<path d="M7149 1316 c-182 -65 -275 -263 -207 -443 29 -80 112 -162 193 -192
49 -19 74 -22 140 -19 49 3 93 11 113 22 32 16 34 16 59 -4 58 -45 134 -12
149 65 4 21 5 101 2 179 -4 128 -8 148 -33 204 -37 83 -124 165 -197 187 -62
18 -170 19 -219 1z m179 -180 c110 -57 115 -212 9 -276 -46 -28 -124 -27 -168
3 -127 84 -68 287 83 287 27 0 61 -6 76 -14z"/>
</g>
</svg>
